<?xml version="1.0" encoding="UTF-8" standalone="no"?>
<!-- Created with Inkscape (http://www.inkscape.org/) -->

<svg
   xmlns:dc="http://purl.org/dc/elements/1.1/"
   xmlns:cc="http://creativecommons.org/ns#"
   xmlns:rdf="http://www.w3.org/1999/02/22-rdf-syntax-ns#"
   xmlns:svg="http://www.w3.org/2000/svg"
   xmlns="http://www.w3.org/2000/svg"
   xmlns:sodipodi="http://sodipodi.sourceforge.net/DTD/sodipodi-0.dtd"
   xmlns:inkscape="http://www.inkscape.org/namespaces/inkscape"
   width="1"
   height="1"
   viewBox="0 0 1 1"
   id="svg2"
   version="1.1"
   inkscape:version="0.91 r13725"
   sodipodi:docname="heal.svg">
  <defs
     id="defs4" />
  <sodipodi:namedview
     id="base"
     pagecolor="#ffffff"
     bordercolor="#666666"
     borderopacity="1.0"
     inkscape:pageopacity="0.0"
     inkscape:pageshadow="2"
     inkscape:zoom="256"
     inkscape:cx="0.32913241"
     inkscape:cy="0.28823504"
     inkscape:document-units="px"
     inkscape:current-layer="layer1"
     showgrid="false"
     units="px"
     inkscape:window-width="1440"
     inkscape:window-height="851"
     inkscape:window-x="0"
     inkscape:window-y="1"
     inkscape:window-maximized="1"
     showguides="false" />
  <metadata
     id="metadata7">
    <rdf:RDF>
      <cc:Work
         rdf:about="">
        <dc:format>image/svg+xml</dc:format>
        <dc:type
           rdf:resource="http://purl.org/dc/dcmitype/StillImage" />
        <dc:title />
      </cc:Work>
    </rdf:RDF>
  </metadata>
  <g
     inkscape:label="Layer 1"
     inkscape:groupmode="layer"
     id="layer1"
     transform="translate(0,-1051.3622)">
    <path
       style="fill:#000000;fill-opacity:1;stroke:#000000;stroke-width:0.03255302;stroke-linecap:round;stroke-linejoin:round;stroke-miterlimit:4;stroke-dasharray:none;stroke-dashoffset:0;stroke-opacity:1"
       d="m 0.63695272,1051.583 -0.41612559,0.4162 0.14222014,0.1422 0.41612559,-0.4161 -0.14222014,-0.1423 z m -0.13519693,0.1633 a 0.03160447,0.03160447 0 0 1 0.005267,0 0.03160447,0.03160447 0 0 1 0.008779,0 0.03160447,0.03160447 0 0 1 0.008779,0 0.03160447,0.03160447 0 0 1 0.005267,0 0.03160447,0.03160447 0 0 1 0.003512,0.01 0.03160447,0.03160447 0 0 1 0.003512,0.01 0.03160447,0.03160447 0 0 1 0.001756,0.012 0.03160447,0.03160447 0 0 1 -0.001756,0.01 0.03160447,0.03160447 0 0 1 -0.003512,0.01 0.03160447,0.03160447 0 0 1 -0.003512,0.01 0.03160447,0.03160447 0 0 1 -0.005267,0 0.03160447,0.03160447 0 0 1 -0.005267,0 0.03160447,0.03160447 0 0 1 -0.0122906,0 0.03160447,0.03160447 0 0 1 -0.008779,0 0.03160447,0.03160447 0 0 1 -0.008779,0 0.03160447,0.03160447 0 0 1 -0.005267,0 0.03160447,0.03160447 0 0 1 -0.003512,-0.01 0.03160447,0.03160447 0 0 1 -0.003512,-0.01 0.03160447,0.03160447 0 0 1 -0.001756,-0.012 0.03160447,0.03160447 0 0 1 0.001756,-0.01 0.03160447,0.03160447 0 0 1 0.003512,-0.01 0.03160447,0.03160447 0 0 1 0.003512,-0.01 0.03160447,0.03160447 0 0 1 0.005267,0 0.03160447,0.03160447 0 0 1 0.005267,0 0.03160447,0.03160447 0 0 1 0.007023,0 z m -0.0737438,0.07 a 0.03160447,0.03160447 0 0 1 0.005267,0 0.03160447,0.03160447 0 0 1 0.008779,0 0.03160447,0.03160447 0 0 1 0.008779,0 0.03160447,0.03160447 0 0 1 0.005267,0 0.03160447,0.03160447 0 0 1 0.003512,0.01 0.03160447,0.03160447 0 0 1 0.003512,0.01 0.03160447,0.03160447 0 0 1 0.001756,0.012 0.03160447,0.03160447 0 0 1 -0.001756,0.01 0.03160447,0.03160447 0 0 1 -0.003512,0.01 0.03160447,0.03160447 0 0 1 -0.003512,0.01 0.03160447,0.03160447 0 0 1 -0.005267,0 0.03160447,0.03160447 0 0 1 -0.005267,0 0.03160447,0.03160447 0 0 1 -0.0122906,0 0.03160447,0.03160447 0 0 1 -0.008779,0 0.03160447,0.03160447 0 0 1 -0.008779,0 0.03160447,0.03160447 0 0 1 -0.005267,0 0.03160447,0.03160447 0 0 1 -0.003512,-0.01 0.03160447,0.03160447 0 0 1 -0.003512,-0.01 0.03160447,0.03160447 0 0 1 -0.001756,-0.012 0.03160447,0.03160447 0 0 1 0.001756,-0.01 0.03160447,0.03160447 0 0 1 0.003512,-0.01 0.03160447,0.03160447 0 0 1 0.003512,-0.01 0.03160447,0.03160447 0 0 1 0.005267,0 0.03160447,0.03160447 0 0 1 0.005267,0 0.03160447,0.03160447 0 0 1 0.007023,0 z m 0.14397593,0.01 a 0.03160447,0.03160447 0 0 1 0.005267,0 0.03160447,0.03160447 0 0 1 0.008779,0 0.03160447,0.03160447 0 0 1 0.008779,0 0.03160447,0.03160447 0 0 1 0.005267,0 0.03160447,0.03160447 0 0 1 0.003512,0.01 0.03160447,0.03160447 0 0 1 0.003512,0.01 0.03160447,0.03160447 0 0 1 0.001756,0.012 0.03160447,0.03160447 0 0 1 -0.001756,0.01 0.03160447,0.03160447 0 0 1 -0.003512,0.01 0.03160447,0.03160447 0 0 1 -0.003512,0.01 0.03160447,0.03160447 0 0 1 -0.005267,0 0.03160447,0.03160447 0 0 1 -0.005267,0 0.03160447,0.03160447 0 0 1 -0.0122906,0 0.03160447,0.03160447 0 0 1 -0.008779,0 0.03160447,0.03160447 0 0 1 -0.008779,0 0.03160447,0.03160447 0 0 1 -0.005267,0 0.03160447,0.03160447 0 0 1 -0.003512,-0.01 0.03160447,0.03160447 0 0 1 -0.003512,-0.01 0.03160447,0.03160447 0 0 1 -0.001756,-0.012 0.03160447,0.03160447 0 0 1 0.001756,-0.01 0.03160447,0.03160447 0 0 1 0.003512,-0.01 0.03160447,0.03160447 0 0 1 0.003512,-0.01 0.03160447,0.03160447 0 0 1 0.005267,0 0.03160447,0.03160447 0 0 1 0.005267,0 0.03160447,0.03160447 0 0 1 0.007023,0 z m -0.0702322,0.067 a 0.03160447,0.03160447 0 0 1 0.005267,0 0.03160447,0.03160447 0 0 1 0.008779,0 0.03160447,0.03160447 0 0 1 0.008779,0 0.03160447,0.03160447 0 0 1 0.005267,0 0.03160447,0.03160447 0 0 1 0.003512,0.01 0.03160447,0.03160447 0 0 1 0.003512,0.01 0.03160447,0.03160447 0 0 1 0.001756,0.012 0.03160447,0.03160447 0 0 1 -0.001756,0.01 0.03160447,0.03160447 0 0 1 -0.003512,0.01 0.03160447,0.03160447 0 0 1 -0.003512,0.01 0.03160447,0.03160447 0 0 1 -0.005267,0 0.03160447,0.03160447 0 0 1 -0.005267,0 0.03160447,0.03160447 0 0 1 -0.0122906,0 0.03160447,0.03160447 0 0 1 -0.008779,0 0.03160447,0.03160447 0 0 1 -0.008779,0 0.03160447,0.03160447 0 0 1 -0.005267,0 0.03160447,0.03160447 0 0 1 -0.003512,-0.01 0.03160447,0.03160447 0 0 1 -0.003512,-0.01 0.03160447,0.03160447 0 0 1 -0.001756,-0.012 0.03160447,0.03160447 0 0 1 0.001756,-0.01 0.03160447,0.03160447 0 0 1 0.003512,-0.01 0.03160447,0.03160447 0 0 1 0.003512,-0.01 0.03160447,0.03160447 0 0 1 0.005267,0 0.03160447,0.03160447 0 0 1 0.005267,0 0.03160447,0.03160447 0 0 1 0.007023,0 z"
       id="rect6045"
       inkscape:connector-curvature="0" />
    <rect
       y="743.83899"
       x="-743.5257"
       height="0.58689469"
       width="0.20061778"
       id="rect6049"
       style="fill:none;fill-opacity:1;stroke:#000000;stroke-width:0.03255302;stroke-linecap:round;stroke-linejoin:round;stroke-miterlimit:4;stroke-dasharray:none;stroke-dashoffset:0;stroke-opacity:1"
       transform="matrix(0.70710678,-0.70710678,0.70710678,0.70710678,0,0)" />
  </g>
</svg>
